<svg xmlns="http://www.w3.org/2000/svg" width="1343" height="201" viewBox="0 0 1343 201"><g transform="translate(0,101.25)"><path transform="translate(0.00,0.00)" d="M82.2 0.44999999999999996Q114.6 0.44999999999999996 134.55 -7.65Q154.5 -15.75 154.5 -35.25Q154.5 -49.05 141.675 -54.974999999999994Q128.85 -60.9 94.5 -63.15Q76.2 -64.2 61.8 -65.325Q47.4 -66.45 47.4 -69.14999999999999Q47.4 -71.7 57.075 -73.5Q66.75 -75.3 80.1 -75.3Q91.64999999999999 -75.3 101.85 -72.75Q112.05 -70.2 112.05 -65.7H154.5Q154.5 -84.45 133.725 -93.375Q112.95 -102.3 80.7 -102.3Q48.449999999999996 -102.3 27.9 -94.125Q7.35 -85.95 7.35 -67.35Q7.35 -52.8 20.85 -46.425Q34.35 -40.05 65.85 -38.25Q85.5 -37.05 99.525 -36.15Q113.55 -35.25 113.55 -31.95Q113.55 -29.25 103.875 -27.9Q94.2 -26.55 81.675 -26.55Q69.14999999999999 -26.55 59.324999999999996 -29.174999999999997Q49.5 -31.799999999999997 49.5 -36.3H7.199999999999999Q7.199999999999999 -17.099999999999998 27.525 -8.325Q47.85 0.44999999999999996 82.2 0.44999999999999996ZM175.5 0.0H217.95V-23.25H264.6Q288.9 -23.25 301.125 -32.849999999999994Q313.35 -42.449999999999996 313.35 -62.4Q313.35 -82.2 301.20000000000005 -91.725Q289.05 -101.25 264.6 -101.25H175.5ZM217.95 -50.4V-74.1H254.1Q262.65 -74.1 267.075 -71.475Q271.5 -68.85 271.5 -62.25Q271.5 -55.65 267.15 -53.025Q262.8 -50.4 254.1 -50.4ZM328.95 0.0H453.29999999999995V-27.15H371.4V-38.175H445.65V-63.375H371.4V-74.1H453.29999999999995V-101.25H328.95ZM545.4 0.6Q580.5 0.6 599.55 -11.774999999999999Q618.6 -24.15 618.6 -40.949999999999996H575.1Q575.1 -36.449999999999996 566.7 -31.5Q558.3 -26.55 544.65 -26.55Q530.55 -26.55 521.025 -32.7Q511.5 -38.85 511.5 -50.85Q511.5 -63.0 521.1 -69.07499999999999Q530.7 -75.14999999999999 544.65 -75.14999999999999Q558.45 -75.14999999999999 566.7750000000001 -70.35Q575.1 -65.55 575.1 -61.199999999999996H618.6Q618.6 -78.0 599.625 -90.15Q580.65 -102.3 545.4 -102.3Q510.45 -102.3 489.29999999999995 -89.1Q468.15 -75.89999999999999 468.15 -50.85Q468.15 -25.95 489.29999999999995 -12.674999999999999Q510.45 0.6 545.4 0.6ZM643.65 0.0H685.65V-101.25H643.65ZM714.3 0.0H756.3V-73.2H756.5999999999999L781.8 -0.75H832.9499999999999L858.15 -73.2H858.4499999999999V0.0H900.4499999999999V-101.25H831.5999999999999L807.4499999999999 -29.4H807.3L783.15 -101.25H714.3ZM931.8 0.0H973.8V-101.25H931.8ZM1002.4499999999999 0.0H1044.8999999999999V-72.14999999999999H1045.1999999999998L1099.1999999999998 0.0H1165.9499999999998V-101.25H1123.5V-31.95H1123.425L1071.0 -101.25H1002.4499999999999ZM1191.1499999999999 0.0H1275.8999999999999Q1303.05 0.0 1319.925 -12.075Q1336.8 -24.15 1336.8 -50.699999999999996Q1336.8 -77.25 1320.0 -89.25Q1303.1999999999998 -101.25 1275.8999999999999 -101.25H1191.1499999999999ZM1233.6 -27.15V-74.1H1266.1499999999999Q1280.3999999999999 -74.1 1287.375 -68.77499999999999Q1294.35 -63.449999999999996 1294.35 -50.699999999999996Q1294.35 -37.949999999999996 1287.375 -32.55Q1280.3999999999999 -27.15 1266.1499999999999 -27.15Z" fill="#151612" /></g><g transform="translate(355.4384999999999,181.25)"><path transform="translate(0.00,0.00)" d="M11.299982543945312 0.2545245361328125Q13.224359863281249 0.2545245361328125 14.780704193115234 -0.08281979370117187Q16.337048522949217 -0.42016412353515625 17.505696014404297 -0.9640002746582031Q18.674343505859376 -1.50783642578125 19.436392578125 -2.1331889343261716Q20.198441650390624 -2.7585414428710937 20.51173663330078 -3.3575578002929687L20.98190020751953 0.0H25.62584783935547V-17.24955780029297Q25.62584783935547 -20.96990185546875 24.24435629272461 -23.22081979370117Q22.86286474609375 -25.471737731933594 20.208242340087892 -26.496000000000002Q17.553619934082032 -27.520262268066407 13.699473266601562 -27.520262268066407Q11.4838505859375 -27.520262268066407 9.513064056396484 -27.08478680419922Q7.542277526855469 -26.64931134033203 5.968113952636719 -25.709360412597654Q4.393950378417968 -24.76940948486328 3.3275654296874997 -23.23247491455078Q2.261180480957031 -21.69554034423828 1.8661150512695313 -19.481376220703126L7.308324401855469 -18.012115051269532Q7.642586669921875 -20.10778790283203 8.530660552978516 -21.36494412231445Q9.418734436035155 -22.622100341796873 10.75022653198242 -23.184362884521484Q12.081718627929687 -23.746625427246094 13.7229814453125 -23.746625427246094Q15.688785156249999 -23.746625427246094 17.10001498413086 -23.121494018554685Q18.511244812011718 -22.49636260986328 19.27666302490234 -21.130845703124997Q20.042081237792967 -19.76532879638672 20.042081237792967 -17.520918212890624V-16.12395037841797H11.220752990722657Q8.96326171875 -16.12395037841797 7.172376770019531 -15.72580288696289Q5.381491821289062 -15.327655395507811 4.135680480957031 -14.406130859375Q2.889869140625 -13.484606323242188 2.2392298278808593 -11.931344055175781Q1.5885905151367188 -10.378081787109375 1.5885905151367188 -8.044852233886719Q1.5885905151367188 -5.606852233886719 2.262738006591797 -3.995581787109375Q2.936885498046875 -2.3843113403320313 4.217705017089844 -1.4512868041992188Q5.498524536132813 -0.5182622680664063 7.283024261474609 -0.1318688659667969Q9.067523986816406 0.2545245361328125 11.299982543945312 0.2545245361328125ZM12.521899658203125 -3.3545550537109374Q11.402522338867188 -3.3545550537109374 10.438522064208986 -3.570768249511719Q9.474521789550781 -3.7869814453125 8.745128112792969 -4.315760345458984Q8.015734436035157 -4.844539245605469 7.617299865722656 -5.793990447998047Q7.218865295410156 -6.743441650390625 7.218865295410156 -8.244671752929687Q7.218865295410156 -9.735164123535156 7.622668731689453 -10.684869415283202Q8.02647216796875 -11.63457470703125 8.744111755371094 -12.140353607177733Q9.461751342773438 -12.646132507324218 10.432136840820313 -12.844968658447264Q11.402522338867188 -13.043804809570313 12.523932373046875 -13.043804809570313H19.95980261230469V-6.591080688476563Q19.544278076171874 -5.802916564941406 18.52843374633789 -5.050776977539062Q17.512589416503907 -4.298637390136719 15.991474365234374 -3.826596221923828Q14.470359313964844 -3.3545550537109374 12.521899658203125 -3.3545550537109374ZM46.018934570312496 0.0H51.56743890380859V-23.411346801757812H59.23419354248047V-27.255508178710937H51.56743890380859V-28.73482061767578Q51.56743890380859 -31.078411682128905 53.40496398925781 -31.83515786743164Q55.24248907470703 -32.59190405273437 58.77781677246094 -32.59190405273437H59.49234130859375V-36.29501635742187H58.64750543212891Q52.778195739746096 -36.29501635742187 49.398565155029296 -34.60788549804687Q46.018934570312496 -32.92075463867187 46.018934570312496 -28.75782061767578V-27.255508178710937H40.46418048095703V-23.411346801757812H46.018934570312496ZM63.83940728759766 0.0H69.41141979980469V-27.278H63.83940728759766ZM63.83940728759766 -34.94042529296875V-30.455689208984374H69.41141979980469V-34.94042529296875ZM86.81698144531249 0.23101635742187498V-3.4015714111328124Q83.48953814697265 -3.4015714111328124 81.59991491699218 -5.745670654296875Q79.68729168701171 -8.055015808105468 79.68729168701171 -13.67172137451172Q79.68729168701171 -19.556296081542968 81.64388220214843 -21.721985290527343Q83.60047271728516 -23.89942858886719 86.74544055175781 -23.89942858886719Q89.97014611816405 -23.89942858886719 91.76522845458985 -21.850263916015624Q93.26696673583984 -19.97639422607422 93.46576989746093 -15.41749072265625H79.12817718505859V-11.996984741210937H98.97850378417968Q99.0842905883789 -12.791181030273437 99.0842905883789 -13.727950927734375Q99.0842905883789 -20.45373828125 96.30389746093749 -24.004377319335937Q93.48875024414062 -27.532016357421874 86.73368646240233 -27.532016357421874Q80.18714721679687 -27.532016357421874 77.25699999999999 -24.017655944824217Q74.30385278320311 -20.503295532226563 74.30385278320311 -13.683475463867188Q74.30385278320311 -7.178540893554687 77.20127862548827 -3.4622622680664064Q80.06395037841796 0.23101635742187498 86.81698144531249 0.23101635742187498ZM86.81698144531249 -3.4015714111328124V0.23101635742187498Q90.47334130859375 0.23101635742187498 92.76666900634766 -0.6394263916015624Q95.04824261474609 -1.4981150512695312 96.5528980102539 -3.384689208984375Q98.04630749511718 -5.23650927734375 98.46437292480468 -8.01544384765625L93.46881896972656 -9.378918212890625Q93.06250762939453 -7.53522900390625 92.3085894165039 -6.0702775268554685Q91.53167120361327 -4.617080139160156 90.12962158203125 -4.003702819824219Q88.73932604980467 -3.4015714111328124 86.81698144531249 -3.4015714111328124ZM104.11032824707031 0.0H109.67058666992187V-36.11H104.11032824707031ZM133.12691711425782 0.0H138.29979876708984V-36.11H132.76304852294922V-4.367016906738281ZM124.14980261230468 0.17224591064453124Q128.73029388427736 0.17224591064453124 131.9616949157715 -2.070762268066406Q135.19309594726562 -4.313770446777344 135.19309594726562 -6.8324585571289065L132.76304852294922 -9.590227905273437Q132.76304852294922 -7.236539245605469 130.78472845458987 -5.448350311279297Q128.8064083862305 -3.660161376953125 126.04170281982422 -3.660161376953125Q123.11447271728515 -3.660161376953125 121.4313083190918 -5.745858764648437Q119.74814392089844 -7.83155615234375 119.74814392089844 -13.661999999999999Q119.74814392089844 -19.480181579589843 121.4313083190918 -21.565878967285155Q123.11447271728515 -23.651576354980467 126.04170281982422 -23.651576354980467Q128.8064083862305 -23.651576354980467 130.78472845458987 -21.874887420654296Q132.76304852294922 -20.098198486328126 132.76304852294922 -17.768018005371093L135.19309594726562 -20.479279174804688Q135.19309594726562 -22.99796728515625 131.9616949157715 -25.252729553222657Q128.73029388427736 -27.50749182128906 124.14980261230468 -27.50749182128906Q119.05568865966796 -27.50749182128906 116.59265594482422 -24.014606872558595Q114.12962322998047 -20.521721923828125 114.12962322998047 -13.685508178710938Q114.12962322998047 -6.860540344238281 116.59265594482422 -3.3441472167968747Q119.05568865966796 0.17224591064453124 124.14980261230468 0.17224591064453124ZM165.97739147949218 10.710311340332032Q169.72829223632814 10.710311340332032 172.25898852539063 9.667909759521486Q174.78968481445312 8.625508178710938 176.46324996948243 6.055164123535157Q178.1368151245117 3.484820068359375 178.1368151245117 -0.990392578125V-27.255508178710937H174.02230969238283L172.5648026123047 -21.742622680664063V-0.4486881103515625Q172.5648026123047 4.133525634765625 170.80984323120117 5.640378692626953Q169.05488385009767 7.147231750488281 166.15370281982422 7.147231750488281Q164.4066531982422 7.147231750488281 163.04116928100586 6.588813537597656Q161.67568536376953 6.030395324707031 160.8980048828125 4.809296630859375Q160.12032440185547 3.5881979370117185 159.9485866699219 1.5845250854492188H154.50688549804687Q154.90245910644532 6.6081804809570315 158.12591738891604 8.659245910644533Q161.34937567138672 10.710311340332032 165.97739147949218 10.710311340332032ZM163.99857305908205 0.17224591064453124Q168.5790643310547 0.17224591064453124 171.79820309448243 -2.0370245361328125Q175.01734185791017 -4.246294982910157 175.01734185791017 -6.8324585571289065L172.55304852294924 -9.590227905273437Q172.55304852294924 -7.236539245605469 170.57472845458986 -5.448350311279297Q168.59640838623048 -3.660161376953125 165.83170281982422 -3.660161376953125Q162.90447271728516 -3.660161376953125 161.2213083190918 -5.745858764648437Q159.53814392089845 -7.83155615234375 159.53814392089845 -13.661999999999999Q159.53814392089845 -19.480181579589843 161.2213083190918 -21.565878967285155Q162.90447271728516 -23.651576354980467 165.83170281982422 -23.651576354980467Q168.59640838623048 -23.651576354980467 170.57472845458986 -21.874887420654296Q172.55304852294924 -20.098198486328126 172.55304852294924 -17.768018005371093L174.98309594726564 -20.36173828125Q174.98309594726564 -22.880426391601564 171.7516949157715 -25.193959106445313Q168.52029388427735 -27.50749182128906 163.9398026123047 -27.50749182128906Q158.84568865966799 -27.50749182128906 156.38265594482425 -24.014606872558595Q153.9196232299805 -20.521721923828125 153.9196232299805 -13.685508178710938Q153.9196232299805 -6.860540344238281 156.4120411682129 -3.3441472167968747Q158.90445910644533 0.17224591064453124 163.99857305908205 0.17224591064453124ZM201.67294927978514 0.0H205.97552014160155V-27.255508178710937H200.42701580810547V-4.533606872558594ZM188.53707849121093 -27.278H182.98857415771482V-11.820277526855469Q182.98857415771482 -6.188392578125 184.94509869384763 -2.973827423095703Q186.90162322998046 0.24073773193359374 191.84344219970703 0.24073773193359374Q197.10973608398436 0.24073773193359374 200.1408094177246 -2.8948189697265625Q203.17188275146484 -6.030375671386719 203.17188275146484 -9.432276977539063L200.4505239868164 -10.865899658203125Q200.4505239868164 -7.67194873046875 198.52306460571288 -5.649440277099609Q196.59560522460936 -3.6269318237304686 193.8293751220703 -3.6269318237304686Q191.12445635986327 -3.6269318237304686 189.8307674255371 -5.493842132568359Q188.53707849121093 -7.36075244140625 188.53707849121093 -12.057392028808593ZM211.71150872802735 0.0H217.2835212402344V-27.278H211.71150872802735ZM211.71150872802735 -34.94042529296875V-30.455689208984374H217.2835212402344V-34.94042529296875ZM241.1349171142578 0.0H246.30779876708985V-36.11H240.77104852294923V-4.367016906738281ZM232.1578026123047 0.17224591064453124Q236.73829388427734 0.17224591064453124 239.96969491577147 -2.070762268066406Q243.20109594726563 -4.313770446777344 243.20109594726563 -6.8324585571289065L240.77104852294923 -9.590227905273437Q240.77104852294923 -7.236539245605469 238.79272845458985 -5.448350311279297Q236.81440838623047 -3.660161376953125 234.0497028198242 -3.660161376953125Q231.12247271728515 -3.660161376953125 229.4393083190918 -5.745858764648437Q227.75614392089844 -7.83155615234375 227.75614392089844 -13.661999999999999Q227.75614392089844 -19.480181579589843 229.4393083190918 -21.565878967285155Q231.12247271728515 -23.651576354980467 234.0497028198242 -23.651576354980467Q236.81440838623047 -23.651576354980467 238.79272845458985 -21.874887420654296Q240.77104852294923 -20.098198486328126 240.77104852294923 -17.768018005371093L243.20109594726563 -20.479279174804688Q243.20109594726563 -22.99796728515625 239.96969491577147 -25.252729553222657Q236.73829388427734 -27.50749182128906 232.1578026123047 -27.50749182128906Q227.06368865966797 -27.50749182128906 224.6006559448242 -24.014606872558595Q222.13762322998048 -20.521721923828125 222.13762322998048 -13.685508178710938Q222.13762322998048 -6.860540344238281 224.6006559448242 -3.3441472167968747Q227.06368865966797 0.17224591064453124 232.1578026123047 0.17224591064453124ZM262.9049814453125 0.23101635742187498V-3.4015714111328124Q259.57753814697264 -3.4015714111328124 257.6879149169922 -5.745670654296875Q255.77529168701173 -8.055015808105468 255.77529168701173 -13.67172137451172Q255.77529168701173 -19.556296081542968 257.7318822021484 -21.721985290527343Q259.68847271728515 -23.89942858886719 262.8334405517578 -23.89942858886719Q266.0581461181641 -23.89942858886719 267.85322845458984 -21.850263916015624Q269.35496673583987 -19.97639422607422 269.55376989746094 -15.41749072265625H255.2161771850586V-11.996984741210937H275.0665037841797Q275.1722905883789 -12.791181030273437 275.1722905883789 -13.727950927734375Q275.1722905883789 -20.45373828125 272.3918974609375 -24.004377319335937Q269.5767502441406 -27.532016357421874 262.82168646240234 -27.532016357421874Q256.2751472167969 -27.532016357421874 253.345 -24.017655944824217Q250.39185278320312 -20.503295532226563 250.39185278320312 -13.683475463867188Q250.39185278320312 -7.178540893554687 253.2892786254883 -3.4622622680664064Q256.15195037841795 0.23101635742187498 262.9049814453125 0.23101635742187498ZM262.9049814453125 -3.4015714111328124V0.23101635742187498Q266.56134130859374 0.23101635742187498 268.85466900634765 -0.6394263916015624Q271.1362426147461 -1.4981150512695312 272.6408980102539 -3.384689208984375Q274.1343074951172 -5.23650927734375 274.5523729248047 -8.01544384765625L269.5568189697266 -9.378918212890625Q269.15050762939455 -7.53522900390625 268.3965894165039 -6.0702775268554685Q267.6196712036133 -4.617080139160156 266.21762158203126 -4.003702819824219Q264.8273260498047 -3.4015714111328124 262.9049814453125 -3.4015714111328124ZM303.4065228881836 0.3122786254882812Q306.1071123046875 0.3122786254882812 308.56442309570315 -0.27701635742187497V-4.003636840820312Q306.9646526489258 -3.461358215332031 305.2733903808594 -3.461358215332031Q303.45175079345705 -3.461358215332031 302.44305395507814 -4.2331616516113275Q301.43435711669923 -5.004965087890625 301.43435711669923 -7.432293334960938V-23.387838623046875H310.2675054321289V-27.255508178710937H301.43435711669923V-33.44454089355469H295.87409869384766V-27.255508178710937H289.5321968383789V-23.387838623046875H295.87409869384766V-6.168949829101562Q295.87409869384766 -2.4517208251953124 298.0423849487305 -1.0697210998535156Q300.2106712036133 0.3122786254882812 303.4065228881836 0.3122786254882812ZM325.42768646240233 0.19575408935546876Q331.9512257080078 0.19575408935546876 334.955487701416 -3.2674915466308594Q337.9597496948242 -6.730737182617188 337.9597496948242 -13.709524536132813Q337.9597496948242 -20.71131188964844 334.955487701416 -24.133164123535156Q331.9512257080078 -27.555016357421874 325.42768646240233 -27.555016357421874Q318.91590130615236 -27.555016357421874 315.9057622680664 -24.133164123535156Q312.89562322998046 -20.71131188964844 312.89562322998046 -13.709524536132813Q312.89562322998046 -6.730737182617188 315.9057622680664 -3.2674915466308594Q318.91590130615236 0.19575408935546876 325.42768646240233 0.19575408935546876ZM325.42768646240233 -3.61314501953125Q322.3869808959961 -3.61314501953125 320.4211771850586 -5.692711273193359Q318.4553734741211 -7.7722775268554685 318.4553734741211 -13.686016357421876Q318.4553734741211 -19.611001098632812 320.4211771850586 -21.678559173583984Q322.3869808959961 -23.746117248535157 325.42768646240233 -23.746117248535157Q328.48014611816404 -23.746117248535157 330.4400727844238 -21.678559173583984Q332.3999994506836 -19.611001098632812 332.3999994506836 -13.686016357421876Q332.3999994506836 -7.7722775268554685 330.4400727844238 -5.692711273193359Q328.48014611816404 -3.61314501953125 325.42768646240233 -3.61314501953125ZM353.83155780029296 0.0H359.38006213378907V-22.18463848876953L358.1576368408203 -27.255508178710937H353.83155780029296ZM371.1171962890625 0.0H376.6657006225586V-15.281411132812499Q376.6657006225586 -20.93629608154297 374.6797908630371 -24.22751690673828Q372.69388110351565 -27.518737731933594 367.8108325805664 -27.518737731933594Q362.81488275146484 -27.518737731933594 359.665760345459 -24.39468103027344Q356.5166379394531 -21.27062432861328 356.5166379394531 -17.845723022460938L359.203750793457 -16.317559448242186Q359.203750793457 -19.511510375976563 361.1133249511719 -21.581289276123044Q363.0228991088867 -23.65106817626953 365.7661292114258 -23.65106817626953Q368.47104797363284 -23.65106817626953 369.79412213134765 -21.784157867431638Q371.1171962890625 -19.91724755859375 371.1171962890625 -15.232362060546874ZM393.3149814453125 0.23101635742187498V-3.4015714111328124Q389.98753814697267 -3.4015714111328124 388.0979149169922 -5.745670654296875Q386.1852916870117 -8.055015808105468 386.1852916870117 -13.67172137451172Q386.1852916870117 -19.556296081542968 388.14188220214845 -21.721985290527343Q390.0984727172852 -23.89942858886719 393.2434405517578 -23.89942858886719Q396.46814611816404 -23.89942858886719 398.26322845458986 -21.850263916015624Q399.76496673583983 -19.97639422607422 399.9637698974609 -15.41749072265625H385.62617718505857V-11.996984741210937H405.47650378417967Q405.5822905883789 -12.791181030273437 405.5822905883789 -13.727950927734375Q405.5822905883789 -20.45373828125 402.8018974609375 -24.004377319335937Q399.98675024414064 -27.532016357421874 393.23168646240237 -27.532016357421874Q386.68514721679685 -27.532016357421874 383.755 -24.017655944824217Q380.8018527832031 -20.503295532226563 380.8018527832031 -13.683475463867188Q380.8018527832031 -7.178540893554687 383.69927862548826 -3.4622622680664064Q386.561950378418 0.23101635742187498 393.3149814453125 0.23101635742187498ZM393.3149814453125 -3.4015714111328124V0.23101635742187498Q396.97134130859376 0.23101635742187498 399.2646690063477 -0.6394263916015624Q401.5462426147461 -1.4981150512695312 403.0508980102539 -3.384689208984375Q404.5443074951172 -5.23650927734375 404.9623729248047 -8.01544384765625L399.96681896972655 -9.378918212890625Q399.5605076293945 -7.53522900390625 398.8065894165039 -6.0702775268554685Q398.0296712036133 -4.617080139160156 396.6276215820312 -4.003702819824219Q395.23732604980466 -3.4015714111328124 393.3149814453125 -3.4015714111328124ZM414.559688659668 0.0H422.0849786987305L426.8681602783203 -21.706495666503905L431.7070632324219 0.0H439.16182873535155L444.90871368408204 -27.255508178710937H439.16140618896486L435.2926346435547 -3.7383745727539064H435.2348805541992L429.7157649536133 -27.255508178710937H424.09108013916017L418.60366955566406 -3.7031123046875H418.5459154663086L414.52738983154296 -27.255508178710937H408.7800823364258ZM459.66218048095703 0.0H465.46775024414063L468.0218985595703 -8.311394775390625H479.83762213134764L482.3687704467773 0.0H488.1743402099609L477.92186419677734 -31.106737731933592H469.91414831542966ZM468.96991436767576 -12.0615234375 473.90088330078123 -27.77823175048828H473.97039147949215L478.9013604125976 -12.0615234375ZM492.58083642578123 0.0H498.1763571166992V-31.05H492.58083642578123ZM528.1625228881836 0.3122786254882812Q530.8631123046875 0.3122786254882812 533.3204230957032 -0.27701635742187497V-4.003636840820312Q531.7206526489258 -3.461358215332031 530.0293903808595 -3.461358215332031Q528.2077507934571 -3.461358215332031 527.1990539550782 -4.2331616516113275Q526.1903571166993 -5.004965087890625 526.1903571166993 -7.432293334960938V-23.387838623046875H535.0235054321289V-27.255508178710937H526.1903571166993V-33.44454089355469H520.6300986938477V-27.255508178710937H514.2881968383789V-23.387838623046875H520.6300986938477V-6.168949829101562Q520.6300986938477 -2.4517208251953124 522.7983849487305 -1.0697210998535156Q524.9666712036134 0.3122786254882812 528.1625228881836 0.3122786254882812ZM550.1836864624023 0.19575408935546876Q556.7072257080077 0.19575408935546876 559.711487701416 -3.2674915466308594Q562.7157496948242 -6.730737182617188 562.7157496948242 -13.709524536132813Q562.7157496948242 -20.71131188964844 559.711487701416 -24.133164123535156Q556.7072257080077 -27.555016357421874 550.1836864624023 -27.555016357421874Q543.6719013061523 -27.555016357421874 540.6617622680665 -24.133164123535156Q537.6516232299805 -20.71131188964844 537.6516232299805 -13.709524536132813Q537.6516232299805 -6.730737182617188 540.6617622680665 -3.2674915466308594Q543.6719013061523 0.19575408935546876 550.1836864624023 0.19575408935546876ZM550.1836864624023 -3.61314501953125Q547.1429808959961 -3.61314501953125 545.1771771850586 -5.692711273193359Q543.211373474121 -7.7722775268554685 543.211373474121 -13.686016357421876Q543.211373474121 -19.611001098632812 545.1771771850586 -21.678559173583984Q547.1429808959961 -23.746117248535157 550.1836864624023 -23.746117248535157Q553.236146118164 -23.746117248535157 555.1960727844238 -21.678559173583984Q557.1559994506836 -19.611001098632812 557.1559994506836 -13.686016357421876Q557.1559994506836 -7.7722775268554685 555.1960727844238 -5.692711273193359Q553.236146118164 -3.61314501953125 550.1836864624023 -3.61314501953125ZM578.7496864624023 0.19575408935546876Q585.2732257080078 0.19575408935546876 588.277487701416 -3.2674915466308594Q591.2817496948243 -6.730737182617188 591.2817496948243 -13.709524536132813Q591.2817496948243 -20.71131188964844 588.277487701416 -24.133164123535156Q585.2732257080078 -27.555016357421874 578.7496864624023 -27.555016357421874Q572.2379013061524 -27.555016357421874 569.2277622680665 -24.133164123535156Q566.2176232299805 -20.71131188964844 566.2176232299805 -13.709524536132813Q566.2176232299805 -6.730737182617188 569.2277622680665 -3.2674915466308594Q572.2379013061524 0.19575408935546876 578.7496864624023 0.19575408935546876ZM578.7496864624023 -3.61314501953125Q575.7089808959961 -3.61314501953125 573.7431771850586 -5.692711273193359Q571.7773734741211 -7.7722775268554685 571.7773734741211 -13.686016357421876Q571.7773734741211 -19.611001098632812 573.7431771850586 -21.678559173583984Q575.7089808959961 -23.746117248535157 578.7496864624023 -23.746117248535157Q581.802146118164 -23.746117248535157 583.7620727844238 -21.678559173583984Q585.7219994506836 -19.611001098632812 585.7219994506836 -13.686016357421876Q585.7219994506836 -7.7722775268554685 583.7620727844238 -5.692711273193359Q581.802146118164 -3.61314501953125 578.7496864624023 -3.61314501953125ZM596.1723282470704 0.0H601.732586669922V-36.11H596.1723282470704ZM618.8611123046875 0.19575408935546876Q624.4770457763672 0.19575408935546876 627.434479522705 -1.6761720275878906Q630.3919132690429 -3.54809814453125 630.3919132690429 -7.554539794921875Q630.3919132690429 -11.651080688476561 627.5021430969238 -13.235252716064451Q624.6123729248046 -14.819424743652343 620.3303734741211 -15.60555615234375Q616.7873571166991 -16.345687561035156 614.5049882507324 -17.11472900390625Q612.2226193847656 -17.883770446777344 612.2226193847656 -20.080656494140623Q612.2226193847656 -21.820083435058592 613.6374394531249 -22.836247833251953Q615.0522595214843 -23.852412231445314 617.9749160156249 -23.852412231445314Q621.0370970458983 -23.852412231445314 622.8858020629882 -22.392354431152345Q624.7345070800781 -20.932296630859376 625.1643265991211 -18.19408233642578L630.0653396606444 -19.89842529296875Q629.3064056396483 -24.00322900390625 626.2436932678222 -25.74999154663086Q623.1809808959961 -27.49675408935547 618.0454405517578 -27.49675408935547Q612.8250806884765 -27.49675408935547 609.7794912719726 -25.625844329833985Q606.7339018554687 -23.7549345703125 606.7339018554687 -20.068902404785156Q606.7339018554687 -16.104263366699218 609.4095245361327 -14.378025909423828Q612.0851472167968 -12.651788452148438 616.3921793823241 -11.819657043457031Q620.0629661865233 -11.067771545410157 622.477203918457 -10.293615325927735Q624.8914416503906 -9.519459106445312 624.8914416503906 -7.1549007568359375Q624.8914416503906 -5.481424743652344 623.3820806884764 -4.47088330078125Q621.8727197265624 -3.4603418579101564 618.9433909301757 -3.4603418579101564Q615.7263740234374 -3.4603418579101564 613.7920542297363 -4.863407836914062Q611.8577344360351 -6.266473815917968 611.4279149169921 -9.389589965820312L606.5269018554687 -7.6617388305664065Q607.3563604125976 -3.266065979003906 610.5759743652343 -1.5351559448242187Q613.7955883178711 0.19575408935546876 618.8611123046875 0.19575408935546876Z" fill="#151612" /></g></svg>