<svg xmlns="http://www.w3.org/2000/svg" width="660" height="320" viewBox="0 0 660 320"><g transform="translate(20,60)"><g transform="rotate(-7,310.0,100.0)"><rect x="10" y="10" width="600" height="180" fill="none" stroke="#151612" stroke-width="10"/><rect x="26" y="26" width="568" height="148" fill="none" stroke="#151612" stroke-width="3"/><path transform="translate(45.00,122.16)" d="M4.595850108392691 0.0H23.176215546608855V-13.984515329823473H44.44843604831217Q54.03406627438835 -13.984515329823473 59.74605140910498 -17.59554041498916Q65.4580365438216 -21.206565500154845 65.4580365438216 -29.150820687519353Q65.4580365438216 -37.16073087643233 60.07432641684731 -40.738928460823786Q54.69061628987302 -44.31712604521523 45.761536079281505 -44.31712604521523H4.595850108392691ZM46.18829358934654 0.0H67.19789408485599L46.31960359244348 -20.746980489315575H27.410963146484978ZM23.176215546608855 -25.145865593062865V-32.4335707649427H40.443480953855676Q43.7918860328275 -32.4335707649427 45.33477856921647 -31.580055744812633Q46.877671105605444 -30.72654072468256 46.877671105605444 -28.75689067822855Q46.877671105605444 -26.85289563332301 45.3676060699907 -25.999380613192937Q43.85754103437596 -25.145865593062865 40.443480953855676 -25.145865593062865ZM73.10684422421802 0.0H127.53484050789717V-11.88355528027253H91.68720966243419V-16.709197894084856H124.18643542892535V-27.739238154227312H91.68720966243419V-32.4335707649427H127.53484050789717V-44.31712604521523H73.10684422421802ZM136.92350572932796 0.0H184.65469185506348V-11.88355528027253H155.50387116754413V-44.31712604521523H136.92350572932796ZM192.27067203468565 0.0H246.6986683183648V-11.88355528027253H210.85103747290182V-16.709197894084856H243.35026323939297V-27.739238154227312H210.85103747290182V-32.4335707649427H246.6986683183648V-44.31712604521523H192.27067203468565ZM252.11520594611332 0.0H271.4834314029111L275.8166615051099 -8.666460204397646H300.568597088882L304.83617218953236 0.0H324.2043976463301L300.3059770826881 -44.382781046763704H276.0792815113038ZM280.64230411892225 -19.893465469185504 288.19262929699596 -35.19108082997832H288.2582842985444L295.80860947661813 -19.893465469185504ZM359.3626509755342 0.19696500464540104Q373.5441313100031 0.19696500464540104 382.2762465159492 -3.3484050789718176Q391.0083617218953 -6.893775162589036 391.0083617218953 -15.428925363889748Q391.0083617218953 -21.469185506348712 385.3948590895014 -24.06255806751316Q379.78135645710745 -26.655930628677606 364.7463611025085 -27.640755651904612Q356.7364509135955 -28.100340662743882 350.43357076494266 -28.592753174357384Q344.1306906162898 -29.085165685970885 344.1306906162898 -30.26695571384329Q344.1306906162898 -31.383090740167233 348.36543821616596 -32.17095075874884Q352.6001858160421 -32.95881077733044 358.44348095385567 -32.95881077733044Q363.4989160730876 -32.95881077733044 367.96345617838335 -31.842675751006503Q372.42799628367914 -30.72654072468256 372.42799628367914 -28.75689067822855H391.0083617218953Q391.0083617218953 -36.963765871786926 381.9151440074326 -40.870238463920714Q372.8219262929699 -44.7767110560545 358.7061009600495 -44.7767110560545Q344.59027562712913 -44.7767110560545 335.59554041498916 -41.19851347166305Q326.6008052028492 -37.620315887271595 326.6008052028492 -29.479095695261687Q326.6008052028492 -23.110560545060387 332.5097553422112 -20.320222979250538Q338.4187054815732 -17.52988541344069 352.2062558067513 -16.742025394859088Q360.8070610096005 -16.21678538247135 366.94580365438213 -15.822855373180548Q373.0845462991638 -15.428925363889748 373.0845462991638 -13.984515329823473Q373.0845462991638 -12.802725301951067 368.8497986992877 -12.211830288014864Q364.6150510994116 -11.620935274078661 359.13285847011457 -11.620935274078661Q353.65066584081757 -11.620935274078661 349.350263239393 -12.769897801176834Q345.0498606379684 -13.918860328275006 345.0498606379684 -15.888510374729018H326.5351502013007Q326.5351502013007 -7.484670176525239 335.43140291111797 -3.643852585939919Q344.3276556209353 0.19696500464540104 359.3626509755342 0.19696500464540104ZM399.543511923196 0.0H453.9715082068751V-11.88355528027253H418.12387736141216V-16.709197894084856H450.62310312790333V-27.739238154227312H418.12387736141216V-32.4335707649427H453.9715082068751V-44.31712604521523H399.543511923196ZM463.360173428306 0.0H500.4552493031898Q512.3388045834623 0.0 519.7249922576649 -5.285227624651594Q527.1111799318675 -10.570455249303189 527.1111799318675 -22.191390523381852Q527.1111799318675 -33.81232579746051 519.7578197584392 -39.06472592133787Q512.4044595850108 -44.31712604521523 500.4552493031898 -44.31712604521523H463.360173428306ZM481.9405388665221 -11.88355528027253V-32.4335707649427H496.1876742025395Q502.42489934964385 -32.4335707649427 505.4778569216476 -30.102818209972124Q508.5308144936513 -27.772065655001548 508.5308144936513 -22.191390523381852Q508.5308144936513 -16.610715391762152 505.4778569216476 -14.24713533601734Q502.42489934964385 -11.88355528027253 496.1876742025395 -11.88355528027253Z" fill="#151612" /></g></g></svg>